<svg id="Capa_1" enable-background="new 0 0 512.011 512.011" height="512" viewBox="0 0 512.011 512.011" width="512" xmlns="http://www.w3.org/2000/svg"><g id="XMLID_1102_"><g id="XMLID_1241_"><path id="XMLID_1258_" d="m469.51 105.479-351.169-94.095c-21.339-5.718-43.272 6.946-48.99 28.284l-57.975 216.367c-5.718 21.339 6.946 43.272 28.284 48.99l351.169 94.095c21.339 5.718 43.272-6.946 48.99-28.284l57.975-216.367c5.718-21.339-6.945-43.272-28.284-48.99z" fill="#e2e9ee"/><path id="XMLID_1257_" d="m50.868 109.63h443.557v56.433h-443.557z" fill="#6d92ac" transform="matrix(.966 .259 -.259 .966 44.968 -65.869)"/></g><path id="XMLID_671_" d="m462.003 198.011h-363.557c-22.091 0-40 17.909-40 40v224c0 22.091 17.909 40 40 40h363.557c22.091 0 40-17.909 40-40v-224c0-22.092-17.908-40-40-40z" fill="#adeefa"/><g id="XMLID_670_"><g id="XMLID_28_" fill="#fff"><path id="XMLID_403_" d="m110.003 360.011h80v44h-80z"/><path id="XMLID_36_" d="m234.003 360.011h88v44h-88z"/><path id="XMLID_35_" d="m366.003 360.011h88v44h-88z"/></g><path id="XMLID_1794_" d="m106.446 252.011h88v56h-88z" fill="#ffec80"/></g><g id="XMLID_968_"><path id="XMLID_1089_" d="m204.447 308.011v-56c0-5.523-4.477-10-10-10h-88c-5.523 0-10 4.477-10 10v56c0 5.523 4.477 10 10 10h88c5.523 0 10-4.477 10-10zm-20-10h-68v-36h68z"/><path id="XMLID_1797_" d="m200.003 360.011c0-5.523-4.477-10-10-10h-80c-5.523 0-10 4.477-10 10v44c0 5.523 4.477 10 10 10h80c5.523 0 10-4.477 10-10zm-20 34h-60v-24h60z"/><path id="XMLID_1806_" d="m234.003 414.011h88c5.522 0 10-4.477 10-10v-44c0-5.523-4.478-10-10-10h-88c-5.523 0-10 4.477-10 10v44c0 5.523 4.477 10 10 10zm10-44h68v24h-68z"/><path id="XMLID_1809_" d="m356.003 360.011v44c0 5.523 4.478 10 10 10h88c5.522 0 10-4.477 10-10v-44c0-5.523-4.478-10-10-10h-88c-5.522 0-10 4.477-10 10zm20 10h68v24h-68z"/><path id="XMLID_1811_" d="m454.113 242.011h-80c-5.522 0-10 4.477-10 10s4.478 10 10 10h80c5.522 0 10-4.477 10-10s-4.478-10-10-10z"/><path id="XMLID_1813_" d="m454.113 290.011h-38.916c-5.522 0-10 4.477-10 10s4.478 10 10 10h38.916c5.522 0 10-4.477 10-10s-4.478-10-10-10z"/><path id="XMLID_1814_" d="m190.003 438.011h-80c-5.523 0-10 4.477-10 10s4.477 10 10 10h80c5.523 0 10-4.477 10-10s-4.477-10-10-10z"/><path id="XMLID_1815_" d="m324.003 448.011c0-5.523-4.478-10-10-10h-80c-5.523 0-10 4.477-10 10s4.477 10 10 10h80c5.523 0 10-4.477 10-10z"/><path id="XMLID_1823_" d="m495.661 201.069 11.792-44.012c3.457-12.9 1.683-26.375-4.995-37.941s-17.46-19.84-30.36-23.296l-351.169-94.095c-12.899-3.456-26.374-1.683-37.94 4.994-11.566 6.678-19.84 17.46-23.296 30.36l-57.976 216.368c-7.136 26.631 8.725 54.102 35.355 61.238l11.375 3.048v144.278c0 27.57 22.43 50 50 50h136.778c5.523 0 10-4.477 10-10s-4.477-10-10-10h-136.778c-16.542 0-30-13.458-30-30v-224c0-16.542 13.458-30 30-30h363.557c16.542 0 30 13.458 30 30v224c0 16.542-13.458 30-30 30h-136.778c-5.522 0-10 4.477-10 10s4.478 10 10 10h136.777c27.57 0 50-22.43 50-50v-224c0-14.619-6.307-27.791-16.342-36.942zm-402.672-177.029c6.939-4.007 15.024-5.071 22.764-2.997l351.169 94.095c7.74 2.074 14.209 7.038 18.216 13.978 4.007 6.939 5.071 15.024 2.997 22.764l-1.035 3.864-409.125-109.624 1.035-3.863c2.075-7.741 7.039-14.21 13.979-18.217zm-44.542 213.971v59.016l-6.198-1.661c-7.741-2.074-14.21-7.038-18.216-13.978-4.007-6.939-5.071-15.024-2.997-22.765l37.157-138.674 254.01 68.062h-213.756c-27.571 0-50 22.43-50 50zm341.029-50-326.107-87.38 9.43-35.192 409.124 109.624-4.156 15.509c-4.96-1.653-10.256-2.561-15.764-2.561z"/><path id="XMLID_1827_" d="m280.223 492.011c-2.63 0-5.21 1.07-7.07 2.93-1.859 1.86-2.93 4.44-2.93 7.07s1.07 5.21 2.93 7.07 4.44 2.93 7.07 2.93 5.21-1.07 7.07-2.93c1.859-1.86 2.93-4.44 2.93-7.07s-1.07-5.21-2.93-7.07-4.44-2.93-7.07-2.93z"/></g></g></svg>