<svg id="netflix" enable-background="new 0 0 300 300" height="512" viewBox="0 0 300 300" width="512" xmlns="http://www.w3.org/2000/svg"><g><circle cx="254" cy="254" r="4.529"/><circle cx="174" cy="62" r="4.529"/><path d="m121.824 64.176c.781.781 1.805 1.172 2.828 1.172s2.047-.391 2.828-1.172l4.52-4.52 4.52 4.52c.781.781 1.805 1.172 2.828 1.172s2.047-.391 2.828-1.172c1.562-1.562 1.562-4.094 0-5.656l-4.52-4.52 4.52-4.52c1.562-1.562 1.562-4.094 0-5.656s-4.094-1.562-5.656 0l-4.52 4.52-4.52-4.52c-1.562-1.562-4.094-1.562-5.656 0s-1.562 4.094 0 5.656l4.52 4.52-4.52 4.52c-1.562 1.562-1.562 4.093 0 5.656z"/><path d="m253.266 92h-206.532c-8.125 0-14.734 6.609-14.734 14.734v122.531c0 8.126 6.609 14.735 14.734 14.735h87.357l-4.801 12h-37.29c-2.211 0-4 1.789-4 4s1.789 4 4 4h120c2.211 0 4-1.789 4-4s-1.789-4-4-4h-37.292l-4.8-12h83.357c8.125 0 14.734-6.609 14.734-14.734v-122.532c.001-8.125-6.608-14.734-14.733-14.734zm6.734 64h-8v-24h8zm-213.266-56h206.531c3.715 0 6.734 3.02 6.734 6.734v17.266h-12c-2.211 0-4 1.789-4 4v32c0 2.211 1.789 4 4 4h12v4h-36c-2.211 0-4 1.789-4 4v32c0 2.211 1.789 4 4 4h36v4h-219.999v-105.266c0-3.714 3.02-6.734 6.734-6.734zm213.266 100h-32v-24h32zm-93.909 56h-28.183l4.801-12h18.582zm87.175-20h-206.532c-3.714 0-6.734-3.02-6.734-6.734v-9.266h220v9.266c0 3.714-3.02 6.734-6.734 6.734z"/><path d="m176 224h-48c-2.211 0-4 1.789-4 4s1.789 4 4 4h48c2.211 0 4-1.789 4-4s-1.789-4-4-4z"/><path d="m237.973 64h.031c3.727 0 7.234-1.449 9.875-4.082 2.648-2.637 4.113-6.148 4.121-9.891.008-3.738-1.441-7.258-4.082-9.906-2.637-2.648-6.148-4.113-9.891-4.121-.008 0-.02 0-.031 0-3.727 0-7.234 1.449-9.875 4.082-2.648 2.637-4.113 6.148-4.121 9.891-.008 3.738 1.441 7.258 4.082 9.906 2.637 2.648 6.148 4.113 9.891 4.121zm-4.207-18.25c1.133-1.129 2.633-1.75 4.23-1.75h.016c1.602.004 3.109.629 4.238 1.766 1.133 1.137 1.754 2.645 1.75 4.246s-.629 3.109-1.766 4.238c-1.133 1.129-2.633 1.75-4.23 1.75-.008 0-.012 0-.016 0-1.602-.004-3.109-.629-4.238-1.766-1.133-1.137-1.754-2.645-1.75-4.246s.629-3.109 1.766-4.238z"/><path d="m80 164h44c2.211 0 4-1.789 4-4v-32c0-2.211-1.789-4-4-4h-44c-2.211 0-4 1.789-4 4v32c0 2.211 1.789 4 4 4zm4-32h36v24h-36z"/><path d="m180 164c2.211 0 4-1.789 4-4v-32c0-2.211-1.789-4-4-4h-44c-2.211 0-4 1.789-4 4v32c0 2.211 1.789 4 4 4zm-40-32h36v24h-36z"/><path d="m188 128v32c0 2.211 1.789 4 4 4h44c2.211 0 4-1.789 4-4v-32c0-2.211-1.789-4-4-4h-44c-2.211 0-4 1.789-4 4zm8 4h36v24h-36z"/><path d="m80 208h20c2.211 0 4-1.789 4-4v-32c0-2.211-1.789-4-4-4h-20c-2.211 0-4 1.789-4 4v32c0 2.211 1.789 4 4 4zm4-32h12v24h-12z"/><path d="m156 168h-44c-2.211 0-4 1.789-4 4v32c0 2.211 1.789 4 4 4h44c2.211 0 4-1.789 4-4v-32c0-2.211-1.789-4-4-4zm-4 32h-36v-24h36z"/><path d="m212 168h-44c-2.211 0-4 1.789-4 4v32c0 2.211 1.789 4 4 4h44c2.211 0 4-1.789 4-4v-32c0-2.211-1.789-4-4-4zm-4 32h-36v-24h36z"/><path d="m52 136h12c2.211 0 4-1.789 4-4s-1.789-4-4-4h-12c-2.211 0-4 1.789-4 4s1.789 4 4 4z"/><path d="m148 116h12c2.211 0 4-1.789 4-4s-1.789-4-4-4h-12c-2.211 0-4 1.789-4 4s1.789 4 4 4z"/><path d="m52 148h12c2.211 0 4-1.789 4-4s-1.789-4-4-4h-12c-2.211 0-4 1.789-4 4s1.789 4 4 4z"/><path d="m52 160h12c2.211 0 4-1.789 4-4s-1.789-4-4-4h-12c-2.211 0-4 1.789-4 4s1.789 4 4 4z"/><path d="m52 172h12c2.211 0 4-1.789 4-4s-1.789-4-4-4h-12c-2.211 0-4 1.789-4 4s1.789 4 4 4z"/><path d="m52 184h12c2.211 0 4-1.789 4-4s-1.789-4-4-4h-12c-2.211 0-4 1.789-4 4s1.789 4 4 4z"/><path d="m52 196h12c2.211 0 4-1.789 4-4s-1.789-4-4-4h-12c-2.211 0-4 1.789-4 4s1.789 4 4 4z"/><path d="m80 116h52c2.211 0 4-1.789 4-4s-1.789-4-4-4h-52c-2.211 0-4 1.789-4 4s1.789 4 4 4z"/><path d="m176 116h36c2.211 0 4-1.789 4-4s-1.789-4-4-4h-36c-2.211 0-4 1.789-4 4s1.789 4 4 4z"/></g></svg>